<mxfile host="app.diagrams.net" modified="2024-01-07T21:24:28.289Z" agent="Mozilla/5.0 (Macintosh; Intel Mac OS X 10_15_7) AppleWebKit/537.36 (KHTML, like Gecko) Chrome/120.0.0.0 Safari/537.36" etag="lbHe0n8IZAHtbYLOB48_" version="22.1.17" type="github" pages="4">
  <diagram id="prtHgNgQTEPvFCAcTncT" name="Claim registration">
    <mxGraphModel dx="1735" dy="953" grid="1" gridSize="10" guides="1" tooltips="1" connect="1" arrows="1" fold="1" page="1" pageScale="1" pageWidth="827" pageHeight="1169" math="0" shadow="0">
      <root>
        <mxCell id="0" />
        <mxCell id="1" parent="0" />
        <mxCell id="dNxyNK7c78bLwvsdeMH5-19" value="NHCX TO WeCare" style="swimlane;html=1;childLayout=stackLayout;resizeParent=1;resizeParentMax=0;horizontal=0;startSize=20;horizontalStack=0;align=center;" parent="1" vertex="1">
          <mxGeometry x="120" y="120" width="1210" height="1280" as="geometry">
            <mxRectangle x="120" y="120" width="40" height="60" as="alternateBounds" />
          </mxGeometry>
        </mxCell>
        <mxCell id="dNxyNK7c78bLwvsdeMH5-20" value="NHCX" style="swimlane;html=1;startSize=20;horizontal=0;" parent="dNxyNK7c78bLwvsdeMH5-19" vertex="1">
          <mxGeometry x="20" width="1190" height="120" as="geometry">
            <mxRectangle x="20" width="430" height="30" as="alternateBounds" />
          </mxGeometry>
        </mxCell>
        <UserObject label="Request" link="https://ig.hcxprotocol.io/v0.7.1/StructureDefinition-Claim.html" linkTarget="_blank" id="dNxyNK7c78bLwvsdeMH5-23">
          <mxCell style="ellipse;whiteSpace=wrap;html=1;" parent="dNxyNK7c78bLwvsdeMH5-20" vertex="1">
            <mxGeometry x="60" y="40" width="60" height="40" as="geometry" />
          </mxCell>
        </UserObject>
        <mxCell id="-nmNVNPOFhX838iEL5Bt-6" value="RESP" style="ellipse;whiteSpace=wrap;html=1;" vertex="1" parent="dNxyNK7c78bLwvsdeMH5-20">
          <mxGeometry x="160" y="40" width="80" height="40" as="geometry" />
        </mxCell>
        <mxCell id="n_Xed9ibIA65ynU_BDhb-54" value="request" style="ellipse;whiteSpace=wrap;html=1;" parent="dNxyNK7c78bLwvsdeMH5-20" vertex="1">
          <mxGeometry x="999" y="50" width="80" height="40" as="geometry" />
        </mxCell>
        <mxCell id="dNxyNK7c78bLwvsdeMH5-21" value="Api gateway" style="swimlane;html=1;startSize=20;horizontal=0;" parent="dNxyNK7c78bLwvsdeMH5-19" vertex="1">
          <mxGeometry x="20" y="120" width="1190" height="120" as="geometry" />
        </mxCell>
        <mxCell id="dNxyNK7c78bLwvsdeMH5-24" value="Map to Correct Backend Service" style="rounded=0;whiteSpace=wrap;html=1;fontFamily=Helvetica;fontSize=12;fontColor=#000000;align=center;" parent="dNxyNK7c78bLwvsdeMH5-21" vertex="1">
          <mxGeometry x="50" y="30" width="80" height="60" as="geometry" />
        </mxCell>
        <mxCell id="dNxyNK7c78bLwvsdeMH5-22" value="Integration Wrapper&lt;br&gt;" style="swimlane;html=1;startSize=20;horizontal=0;align=center;" parent="dNxyNK7c78bLwvsdeMH5-19" vertex="1">
          <mxGeometry x="20" y="240" width="1190" height="370" as="geometry" />
        </mxCell>
        <mxCell id="-nmNVNPOFhX838iEL5Bt-11" style="edgeStyle=orthogonalEdgeStyle;rounded=0;orthogonalLoop=1;jettySize=auto;html=1;shape=flexArrow;" edge="1" parent="dNxyNK7c78bLwvsdeMH5-22" source="-nmNVNPOFhX838iEL5Bt-12" target="-nmNVNPOFhX838iEL5Bt-10">
          <mxGeometry relative="1" as="geometry" />
        </mxCell>
        <mxCell id="n_Xed9ibIA65ynU_BDhb-7" value="Request recived&amp;nbsp;&lt;br&gt;Add recived data to DB" style="rounded=0;whiteSpace=wrap;html=1;fontFamily=Helvetica;fontSize=12;fontColor=#000000;align=center;" parent="dNxyNK7c78bLwvsdeMH5-22" vertex="1">
          <mxGeometry x="29" y="80" width="122" height="150" as="geometry" />
        </mxCell>
        <mxCell id="-nmNVNPOFhX838iEL5Bt-5" value="" style="outlineConnect=0;dashed=0;verticalLabelPosition=bottom;verticalAlign=top;align=center;html=1;shape=mxgraph.aws3.lambda_function;fillColor=#F58534;gradientColor=none;" vertex="1" parent="dNxyNK7c78bLwvsdeMH5-22">
          <mxGeometry x="28" y="80" width="20" height="20" as="geometry" />
        </mxCell>
        <mxCell id="-nmNVNPOFhX838iEL5Bt-9" value="&lt;meta charset=&quot;utf-8&quot;&gt;&lt;span style=&quot;color: rgb(0, 0, 0); font-family: Helvetica; font-size: 11px; font-style: normal; font-variant-ligatures: normal; font-variant-caps: normal; font-weight: 400; letter-spacing: normal; orphans: 2; text-align: center; text-indent: 0px; text-transform: none; widows: 2; word-spacing: 0px; -webkit-text-stroke-width: 0px; background-color: rgb(255, 255, 255); text-decoration-thickness: initial; text-decoration-style: initial; text-decoration-color: initial; float: none; display: inline !important;&quot;&gt;Real time&lt;/span&gt;" style="text;html=1;align=center;verticalAlign=middle;resizable=0;points=[];autosize=1;strokeColor=none;fillColor=none;" vertex="1" parent="dNxyNK7c78bLwvsdeMH5-22">
          <mxGeometry x="130" y="20" width="70" height="30" as="geometry" />
        </mxCell>
        <mxCell id="-nmNVNPOFhX838iEL5Bt-10" value="request Decrypt" style="rounded=0;whiteSpace=wrap;html=1;fontFamily=Helvetica;fontSize=12;fontColor=#000000;align=center;" vertex="1" parent="dNxyNK7c78bLwvsdeMH5-22">
          <mxGeometry x="256" y="110" width="90" height="90" as="geometry" />
        </mxCell>
        <mxCell id="-nmNVNPOFhX838iEL5Bt-12" value="" style="sketch=0;points=[[0,0,0],[0.25,0,0],[0.5,0,0],[0.75,0,0],[1,0,0],[0,1,0],[0.25,1,0],[0.5,1,0],[0.75,1,0],[1,1,0],[0,0.25,0],[0,0.5,0],[0,0.75,0],[1,0.25,0],[1,0.5,0],[1,0.75,0]];outlineConnect=0;fontColor=#232F3E;fillColor=#E7157B;strokeColor=#ffffff;dashed=0;verticalLabelPosition=bottom;verticalAlign=top;align=center;html=1;fontSize=12;fontStyle=0;aspect=fixed;shape=mxgraph.aws4.resourceIcon;resIcon=mxgraph.aws4.sqs;" vertex="1" parent="dNxyNK7c78bLwvsdeMH5-22">
          <mxGeometry x="187" y="140" width="30" height="30" as="geometry" />
        </mxCell>
        <mxCell id="-nmNVNPOFhX838iEL5Bt-13" value="" style="edgeStyle=orthogonalEdgeStyle;rounded=0;orthogonalLoop=1;jettySize=auto;html=1;shape=flexArrow;" edge="1" parent="dNxyNK7c78bLwvsdeMH5-22" source="n_Xed9ibIA65ynU_BDhb-7" target="-nmNVNPOFhX838iEL5Bt-12">
          <mxGeometry relative="1" as="geometry">
            <mxPoint x="291" y="515" as="sourcePoint" />
            <mxPoint x="380" y="515" as="targetPoint" />
          </mxGeometry>
        </mxCell>
        <mxCell id="-nmNVNPOFhX838iEL5Bt-14" value="SQS" style="text;html=1;align=center;verticalAlign=middle;resizable=0;points=[];autosize=1;strokeColor=none;fillColor=none;" vertex="1" parent="dNxyNK7c78bLwvsdeMH5-22">
          <mxGeometry x="177" y="110" width="50" height="30" as="geometry" />
        </mxCell>
        <mxCell id="-nmNVNPOFhX838iEL5Bt-15" value="" style="outlineConnect=0;dashed=0;verticalLabelPosition=bottom;verticalAlign=top;align=center;html=1;shape=mxgraph.aws3.lambda_function;fillColor=#F58534;gradientColor=none;" vertex="1" parent="dNxyNK7c78bLwvsdeMH5-22">
          <mxGeometry x="254" y="110" width="20" height="20" as="geometry" />
        </mxCell>
        <mxCell id="-nmNVNPOFhX838iEL5Bt-26" value="&lt;p style=&quot;margin:0px;margin-top:4px;margin-left:10px;text-align:left;&quot;&gt;&lt;b&gt;NHCX module library for common logic&lt;/b&gt;&lt;/p&gt;" style="html=1;shape=mxgraph.sysml.package;labelX=238.89;align=left;spacingLeft=10;overflow=fill;recursiveResize=0;fillColor=none;dashed=1;" vertex="1" parent="dNxyNK7c78bLwvsdeMH5-22">
          <mxGeometry x="387" y="20" width="753" height="324" as="geometry" />
        </mxCell>
        <mxCell id="-nmNVNPOFhX838iEL5Bt-25" value="" style="sketch=0;pointerEvents=1;shadow=0;dashed=0;html=1;strokeColor=none;labelPosition=center;verticalLabelPosition=bottom;verticalAlign=top;align=center;fillColor=#505050;shape=mxgraph.mscae.oms.dependency_monitor" vertex="1" parent="-nmNVNPOFhX838iEL5Bt-26">
          <mxGeometry y="20" width="20" height="20" as="geometry" />
        </mxCell>
        <mxCell id="-nmNVNPOFhX838iEL5Bt-74" style="edgeStyle=orthogonalEdgeStyle;rounded=0;orthogonalLoop=1;jettySize=auto;html=1;entryX=0;entryY=0.5;entryDx=0;entryDy=0;" edge="1" parent="dNxyNK7c78bLwvsdeMH5-22" source="-nmNVNPOFhX838iEL5Bt-72" target="-nmNVNPOFhX838iEL5Bt-76">
          <mxGeometry relative="1" as="geometry">
            <mxPoint x="960" y="165" as="targetPoint" />
          </mxGeometry>
        </mxCell>
        <mxCell id="-nmNVNPOFhX838iEL5Bt-72" value="Nhcx Response&lt;br&gt;prepare response bundle for&amp;nbsp;&lt;br&gt;specific NHCX api" style="rounded=0;whiteSpace=wrap;html=1;fontFamily=Helvetica;fontSize=12;fontColor=#000000;align=center;" vertex="1" parent="dNxyNK7c78bLwvsdeMH5-22">
          <mxGeometry x="750" y="108" width="160" height="90" as="geometry" />
        </mxCell>
        <mxCell id="-nmNVNPOFhX838iEL5Bt-73" value="" style="outlineConnect=0;dashed=0;verticalLabelPosition=bottom;verticalAlign=top;align=center;html=1;shape=mxgraph.aws3.lambda_function;fillColor=#F58534;gradientColor=none;" vertex="1" parent="dNxyNK7c78bLwvsdeMH5-22">
          <mxGeometry x="750" y="109" width="20" height="20" as="geometry" />
        </mxCell>
        <mxCell id="-nmNVNPOFhX838iEL5Bt-76" value="Nhcx Encrypt&lt;br&gt;prepare response bundle for&amp;nbsp;&lt;br&gt;specific NHCX api" style="rounded=0;whiteSpace=wrap;html=1;fontFamily=Helvetica;fontSize=12;fontColor=#000000;align=center;" vertex="1" parent="dNxyNK7c78bLwvsdeMH5-22">
          <mxGeometry x="960" y="108" width="160" height="90" as="geometry" />
        </mxCell>
        <mxCell id="-nmNVNPOFhX838iEL5Bt-87" value="" style="outlineConnect=0;dashed=0;verticalLabelPosition=bottom;verticalAlign=top;align=center;html=1;shape=mxgraph.aws3.lambda_function;fillColor=#F58534;gradientColor=none;" vertex="1" parent="dNxyNK7c78bLwvsdeMH5-22">
          <mxGeometry x="960" y="109" width="20" height="20" as="geometry" />
        </mxCell>
        <mxCell id="n_Xed9ibIA65ynU_BDhb-4" value="We care" style="swimlane;html=1;startSize=20;horizontal=0;" parent="dNxyNK7c78bLwvsdeMH5-19" vertex="1">
          <mxGeometry x="20" y="610" width="1190" height="440" as="geometry" />
        </mxCell>
        <mxCell id="-nmNVNPOFhX838iEL5Bt-53" value="WE-CARE-MICROSERVICES" style="rounded=0;whiteSpace=wrap;html=1;fontFamily=Helvetica;fontSize=12;fontColor=#000000;align=center;" vertex="1" parent="n_Xed9ibIA65ynU_BDhb-4">
          <mxGeometry x="380" y="40" width="220" height="80" as="geometry" />
        </mxCell>
        <mxCell id="-nmNVNPOFhX838iEL5Bt-55" value="" style="sketch=0;points=[[0,0,0],[0.25,0,0],[0.5,0,0],[0.75,0,0],[1,0,0],[0,1,0],[0.25,1,0],[0.5,1,0],[0.75,1,0],[1,1,0],[0,0.25,0],[0,0.5,0],[0,0.75,0],[1,0.25,0],[1,0.5,0],[1,0.75,0]];outlineConnect=0;fontColor=#232F3E;fillColor=#ED7100;strokeColor=#ffffff;dashed=0;verticalLabelPosition=bottom;verticalAlign=top;align=center;html=1;fontSize=12;fontStyle=0;aspect=fixed;shape=mxgraph.aws4.resourceIcon;resIcon=mxgraph.aws4.eks_anywhere;" vertex="1" parent="n_Xed9ibIA65ynU_BDhb-4">
          <mxGeometry x="380" y="40" width="30" height="30" as="geometry" />
        </mxCell>
        <mxCell id="-nmNVNPOFhX838iEL5Bt-57" value="WE-CARE-UI&lt;br&gt;" style="rounded=0;whiteSpace=wrap;html=1;fontFamily=Helvetica;fontSize=12;fontColor=#000000;align=center;" vertex="1" parent="n_Xed9ibIA65ynU_BDhb-4">
          <mxGeometry x="380" y="170" width="220" height="80" as="geometry" />
        </mxCell>
        <mxCell id="-nmNVNPOFhX838iEL5Bt-56" value="" style="html=1;verticalLabelPosition=bottom;labelBackgroundColor=#ffffff;verticalAlign=top;shadow=0;dashed=0;strokeWidth=1;shape=mxgraph.ios7.misc.ipad10inch;strokeColor=#c0c0c0;" vertex="1" parent="n_Xed9ibIA65ynU_BDhb-4">
          <mxGeometry x="380" y="170" width="50" height="80" as="geometry" />
        </mxCell>
        <mxCell id="-nmNVNPOFhX838iEL5Bt-58" value="" style="shape=actor;whiteSpace=wrap;html=1;" vertex="1" parent="n_Xed9ibIA65ynU_BDhb-4">
          <mxGeometry x="470" y="336" width="40" height="60" as="geometry" />
        </mxCell>
        <mxCell id="-nmNVNPOFhX838iEL5Bt-61" value="" style="shape=flexArrow;endArrow=classic;startArrow=classic;html=1;rounded=0;entryX=0.5;entryY=1;entryDx=0;entryDy=0;exitX=0.5;exitY=0;exitDx=0;exitDy=0;" edge="1" parent="n_Xed9ibIA65ynU_BDhb-4" source="-nmNVNPOFhX838iEL5Bt-57" target="-nmNVNPOFhX838iEL5Bt-53">
          <mxGeometry width="100" height="100" relative="1" as="geometry">
            <mxPoint x="440" y="260" as="sourcePoint" />
            <mxPoint x="540" y="160" as="targetPoint" />
          </mxGeometry>
        </mxCell>
        <mxCell id="-nmNVNPOFhX838iEL5Bt-65" value="" style="shape=flexArrow;endArrow=classic;startArrow=classic;html=1;rounded=0;entryX=0.5;entryY=1;entryDx=0;entryDy=0;exitX=0.5;exitY=0;exitDx=0;exitDy=0;" edge="1" parent="n_Xed9ibIA65ynU_BDhb-4" source="-nmNVNPOFhX838iEL5Bt-58" target="-nmNVNPOFhX838iEL5Bt-57">
          <mxGeometry width="100" height="100" relative="1" as="geometry">
            <mxPoint x="512" y="196" as="sourcePoint" />
            <mxPoint x="512" y="146" as="targetPoint" />
          </mxGeometry>
        </mxCell>
        <mxCell id="-nmNVNPOFhX838iEL5Bt-66" value="&lt;ol&gt;&lt;li&gt;Claim approval&lt;/li&gt;&lt;li&gt;payment&lt;/li&gt;&lt;li&gt;any action impacting&lt;/li&gt;&lt;/ol&gt;" style="html=1;shape=mxgraph.infographic.ribbonSimple;notch1=0;notch2=20;align=left;verticalAlign=middle;fontSize=14;fontStyle=0;fillColor=#FFFFFF;whiteSpace=wrap;rotation=0;spacingLeft=-14;" vertex="1" parent="n_Xed9ibIA65ynU_BDhb-4">
          <mxGeometry x="600" y="45" width="180" height="70" as="geometry" />
        </mxCell>
        <mxCell id="n_Xed9ibIA65ynU_BDhb-3" value="Data Base" style="swimlane;html=1;startSize=20;horizontal=0;" parent="dNxyNK7c78bLwvsdeMH5-19" vertex="1">
          <mxGeometry x="20" y="1050" width="1190" height="230" as="geometry" />
        </mxCell>
        <UserObject label="NHCX_LOGS" link="data:page/id,4wlm6lmaPrlt67HvVmds" id="n_Xed9ibIA65ynU_BDhb-13">
          <mxCell style="swimlane;whiteSpace=wrap;html=1;" parent="n_Xed9ibIA65ynU_BDhb-3" vertex="1" collapsed="1">
            <mxGeometry x="30" y="70" width="430" height="30" as="geometry">
              <mxRectangle x="32" y="70" width="96" height="80" as="alternateBounds" />
            </mxGeometry>
          </mxCell>
        </UserObject>
        <mxCell id="dNxyNK7c78bLwvsdeMH5-25" value="" style="edgeStyle=orthogonalEdgeStyle;rounded=0;orthogonalLoop=1;jettySize=auto;html=1;" parent="dNxyNK7c78bLwvsdeMH5-19" source="dNxyNK7c78bLwvsdeMH5-23" target="dNxyNK7c78bLwvsdeMH5-24" edge="1">
          <mxGeometry relative="1" as="geometry" />
        </mxCell>
        <mxCell id="-nmNVNPOFhX838iEL5Bt-1" style="edgeStyle=orthogonalEdgeStyle;rounded=0;orthogonalLoop=1;jettySize=auto;html=1;entryX=0.5;entryY=0;entryDx=0;entryDy=0;" edge="1" parent="dNxyNK7c78bLwvsdeMH5-19" source="dNxyNK7c78bLwvsdeMH5-24" target="n_Xed9ibIA65ynU_BDhb-7">
          <mxGeometry relative="1" as="geometry" />
        </mxCell>
        <mxCell id="-nmNVNPOFhX838iEL5Bt-3" style="edgeStyle=orthogonalEdgeStyle;rounded=0;orthogonalLoop=1;jettySize=auto;html=1;entryX=0.14;entryY=0;entryDx=0;entryDy=0;entryPerimeter=0;" edge="1" parent="dNxyNK7c78bLwvsdeMH5-19" source="n_Xed9ibIA65ynU_BDhb-7" target="n_Xed9ibIA65ynU_BDhb-13">
          <mxGeometry relative="1" as="geometry">
            <mxPoint x="110" y="1020" as="targetPoint" />
            <Array as="points" />
          </mxGeometry>
        </mxCell>
        <mxCell id="-nmNVNPOFhX838iEL5Bt-7" style="edgeStyle=orthogonalEdgeStyle;rounded=0;orthogonalLoop=1;jettySize=auto;html=1;exitX=0.75;exitY=0;exitDx=0;exitDy=0;entryX=0.5;entryY=1;entryDx=0;entryDy=0;" edge="1" parent="dNxyNK7c78bLwvsdeMH5-19" source="n_Xed9ibIA65ynU_BDhb-7" target="-nmNVNPOFhX838iEL5Bt-6">
          <mxGeometry relative="1" as="geometry">
            <Array as="points">
              <mxPoint x="141" y="290" />
              <mxPoint x="220" y="290" />
            </Array>
          </mxGeometry>
        </mxCell>
        <mxCell id="-nmNVNPOFhX838iEL5Bt-16" style="edgeStyle=orthogonalEdgeStyle;rounded=0;orthogonalLoop=1;jettySize=auto;html=1;" edge="1" parent="dNxyNK7c78bLwvsdeMH5-19">
          <mxGeometry relative="1" as="geometry">
            <mxPoint x="321" y="441" as="sourcePoint" />
            <mxPoint x="322" y="1130" as="targetPoint" />
          </mxGeometry>
        </mxCell>
        <mxCell id="-nmNVNPOFhX838iEL5Bt-71" style="edgeStyle=orthogonalEdgeStyle;rounded=0;orthogonalLoop=1;jettySize=auto;html=1;entryX=0.5;entryY=1;entryDx=0;entryDy=0;exitX=1;exitY=0.5;exitDx=0;exitDy=0;exitPerimeter=0;" edge="1" parent="dNxyNK7c78bLwvsdeMH5-19" source="-nmNVNPOFhX838iEL5Bt-66" target="-nmNVNPOFhX838iEL5Bt-72">
          <mxGeometry relative="1" as="geometry">
            <mxPoint x="851" y="450" as="targetPoint" />
            <mxPoint x="711" y="665" as="sourcePoint" />
          </mxGeometry>
        </mxCell>
        <mxCell id="-nmNVNPOFhX838iEL5Bt-77" style="edgeStyle=orthogonalEdgeStyle;rounded=0;orthogonalLoop=1;jettySize=auto;html=1;" edge="1" parent="dNxyNK7c78bLwvsdeMH5-19" source="-nmNVNPOFhX838iEL5Bt-76" target="n_Xed9ibIA65ynU_BDhb-54">
          <mxGeometry relative="1" as="geometry" />
        </mxCell>
        <mxCell id="-nmNVNPOFhX838iEL5Bt-39" value="" style="group" vertex="1" connectable="0" parent="1">
          <mxGeometry x="540" y="382" width="280" height="320" as="geometry" />
        </mxCell>
        <mxCell id="-nmNVNPOFhX838iEL5Bt-17" value="preauth" style="rounded=0;whiteSpace=wrap;html=1;fontFamily=Helvetica;fontSize=12;fontColor=#000000;align=center;" vertex="1" parent="-nmNVNPOFhX838iEL5Bt-39">
          <mxGeometry x="55" y="36" width="140" height="30" as="geometry" />
        </mxCell>
        <mxCell id="-nmNVNPOFhX838iEL5Bt-18" value="insaurance plan" style="rounded=0;whiteSpace=wrap;html=1;fontFamily=Helvetica;fontSize=12;fontColor=#000000;align=center;" vertex="1" parent="-nmNVNPOFhX838iEL5Bt-39">
          <mxGeometry x="55" y="76" width="140" height="30" as="geometry" />
        </mxCell>
        <mxCell id="-nmNVNPOFhX838iEL5Bt-19" value="coverage Eligibility" style="rounded=0;whiteSpace=wrap;html=1;fontFamily=Helvetica;fontSize=12;fontColor=#000000;align=center;" vertex="1" parent="-nmNVNPOFhX838iEL5Bt-39">
          <mxGeometry x="55" y="116" width="140" height="30" as="geometry" />
        </mxCell>
        <mxCell id="-nmNVNPOFhX838iEL5Bt-20" value="Claim" style="rounded=0;whiteSpace=wrap;html=1;fontFamily=Helvetica;fontSize=12;fontColor=#000000;align=center;" vertex="1" parent="-nmNVNPOFhX838iEL5Bt-39">
          <mxGeometry x="55" y="156" width="140" height="30" as="geometry" />
        </mxCell>
        <mxCell id="-nmNVNPOFhX838iEL5Bt-21" value="Payment" style="rounded=0;whiteSpace=wrap;html=1;fontFamily=Helvetica;fontSize=12;fontColor=#000000;align=center;" vertex="1" parent="-nmNVNPOFhX838iEL5Bt-39">
          <mxGeometry x="55" y="196" width="140" height="30" as="geometry" />
        </mxCell>
        <mxCell id="-nmNVNPOFhX838iEL5Bt-22" value="indipendent lambda for each api" style="rounded=0;whiteSpace=wrap;html=1;fontFamily=Helvetica;fontSize=12;fontColor=#000000;align=center;" vertex="1" parent="-nmNVNPOFhX838iEL5Bt-39">
          <mxGeometry x="55" y="246" width="140" height="70" as="geometry" />
        </mxCell>
        <mxCell id="-nmNVNPOFhX838iEL5Bt-24" value="" style="endArrow=none;dashed=1;html=1;rounded=0;entryX=0.5;entryY=1;entryDx=0;entryDy=0;exitX=0.5;exitY=0;exitDx=0;exitDy=0;" edge="1" parent="-nmNVNPOFhX838iEL5Bt-39" source="-nmNVNPOFhX838iEL5Bt-22" target="-nmNVNPOFhX838iEL5Bt-21">
          <mxGeometry width="50" height="50" relative="1" as="geometry">
            <mxPoint x="-49" y="306" as="sourcePoint" />
            <mxPoint x="1" y="256" as="targetPoint" />
          </mxGeometry>
        </mxCell>
        <mxCell id="-nmNVNPOFhX838iEL5Bt-32" value="" style="outlineConnect=0;dashed=0;verticalLabelPosition=bottom;verticalAlign=top;align=center;html=1;shape=mxgraph.aws3.lambda_function;fillColor=#F58534;gradientColor=none;" vertex="1" parent="-nmNVNPOFhX838iEL5Bt-39">
          <mxGeometry x="55" y="36" width="20" height="20" as="geometry" />
        </mxCell>
        <mxCell id="-nmNVNPOFhX838iEL5Bt-33" value="" style="outlineConnect=0;dashed=0;verticalLabelPosition=bottom;verticalAlign=top;align=center;html=1;shape=mxgraph.aws3.lambda_function;fillColor=#F58534;gradientColor=none;" vertex="1" parent="-nmNVNPOFhX838iEL5Bt-39">
          <mxGeometry x="55" y="76" width="20" height="20" as="geometry" />
        </mxCell>
        <mxCell id="-nmNVNPOFhX838iEL5Bt-34" value="" style="outlineConnect=0;dashed=0;verticalLabelPosition=bottom;verticalAlign=top;align=center;html=1;shape=mxgraph.aws3.lambda_function;fillColor=#F58534;gradientColor=none;" vertex="1" parent="-nmNVNPOFhX838iEL5Bt-39">
          <mxGeometry x="55" y="116" width="20" height="20" as="geometry" />
        </mxCell>
        <mxCell id="-nmNVNPOFhX838iEL5Bt-35" value="" style="outlineConnect=0;dashed=0;verticalLabelPosition=bottom;verticalAlign=top;align=center;html=1;shape=mxgraph.aws3.lambda_function;fillColor=#F58534;gradientColor=none;" vertex="1" parent="-nmNVNPOFhX838iEL5Bt-39">
          <mxGeometry x="55" y="156" width="20" height="20" as="geometry" />
        </mxCell>
        <mxCell id="-nmNVNPOFhX838iEL5Bt-36" value="" style="outlineConnect=0;dashed=0;verticalLabelPosition=bottom;verticalAlign=top;align=center;html=1;shape=mxgraph.aws3.lambda_function;fillColor=#F58534;gradientColor=none;" vertex="1" parent="-nmNVNPOFhX838iEL5Bt-39">
          <mxGeometry x="55" y="196" width="20" height="20" as="geometry" />
        </mxCell>
        <mxCell id="-nmNVNPOFhX838iEL5Bt-37" value="" style="outlineConnect=0;dashed=0;verticalLabelPosition=bottom;verticalAlign=top;align=center;html=1;shape=mxgraph.aws3.lambda_function;fillColor=#F58534;gradientColor=none;" vertex="1" parent="-nmNVNPOFhX838iEL5Bt-39">
          <mxGeometry x="55" y="246" width="20" height="20" as="geometry" />
        </mxCell>
        <mxCell id="-nmNVNPOFhX838iEL5Bt-46" style="edgeStyle=orthogonalEdgeStyle;rounded=0;orthogonalLoop=1;jettySize=auto;html=1;entryX=0;entryY=0.5;entryDx=0;entryDy=0;" edge="1" parent="1" source="-nmNVNPOFhX838iEL5Bt-10" target="-nmNVNPOFhX838iEL5Bt-17">
          <mxGeometry relative="1" as="geometry" />
        </mxCell>
        <mxCell id="-nmNVNPOFhX838iEL5Bt-47" style="edgeStyle=orthogonalEdgeStyle;rounded=0;orthogonalLoop=1;jettySize=auto;html=1;exitX=1;exitY=0.5;exitDx=0;exitDy=0;entryX=0.145;entryY=0.855;entryDx=0;entryDy=0;entryPerimeter=0;" edge="1" parent="1" source="-nmNVNPOFhX838iEL5Bt-10" target="-nmNVNPOFhX838iEL5Bt-33">
          <mxGeometry relative="1" as="geometry" />
        </mxCell>
        <mxCell id="-nmNVNPOFhX838iEL5Bt-48" style="edgeStyle=orthogonalEdgeStyle;rounded=0;orthogonalLoop=1;jettySize=auto;html=1;exitX=1;exitY=0.5;exitDx=0;exitDy=0;entryX=0.145;entryY=0.855;entryDx=0;entryDy=0;entryPerimeter=0;" edge="1" parent="1" source="-nmNVNPOFhX838iEL5Bt-10" target="-nmNVNPOFhX838iEL5Bt-34">
          <mxGeometry relative="1" as="geometry" />
        </mxCell>
        <mxCell id="-nmNVNPOFhX838iEL5Bt-50" style="edgeStyle=orthogonalEdgeStyle;rounded=0;orthogonalLoop=1;jettySize=auto;html=1;entryX=0;entryY=0.5;entryDx=0;entryDy=0;entryPerimeter=0;" edge="1" parent="1" source="-nmNVNPOFhX838iEL5Bt-10" target="-nmNVNPOFhX838iEL5Bt-35">
          <mxGeometry relative="1" as="geometry" />
        </mxCell>
        <mxCell id="-nmNVNPOFhX838iEL5Bt-51" style="edgeStyle=orthogonalEdgeStyle;rounded=0;orthogonalLoop=1;jettySize=auto;html=1;entryX=0;entryY=0.5;entryDx=0;entryDy=0;" edge="1" parent="1" source="-nmNVNPOFhX838iEL5Bt-10" target="-nmNVNPOFhX838iEL5Bt-21">
          <mxGeometry relative="1" as="geometry" />
        </mxCell>
        <mxCell id="-nmNVNPOFhX838iEL5Bt-52" style="edgeStyle=orthogonalEdgeStyle;rounded=0;orthogonalLoop=1;jettySize=auto;html=1;entryX=0;entryY=0.5;entryDx=0;entryDy=0;" edge="1" parent="1" source="-nmNVNPOFhX838iEL5Bt-10" target="-nmNVNPOFhX838iEL5Bt-22">
          <mxGeometry relative="1" as="geometry" />
        </mxCell>
        <UserObject label="find old records in DB and add new reqest" id="2RhHAe2CQzS2Qe744TcT-8">
          <mxCell style="shape=hexagon;perimeter=hexagonPerimeter2;whiteSpace=wrap;html=1;fixedSize=1;" parent="1" vertex="1">
            <mxGeometry x="360" y="1674" width="130" height="80" as="geometry" />
          </mxCell>
        </UserObject>
        <mxCell id="l9Vu41hiifNTBTkOHgr7-7" value="" style="edgeStyle=orthogonalEdgeStyle;rounded=0;orthogonalLoop=1;jettySize=auto;html=1;" parent="1" source="2RhHAe2CQzS2Qe744TcT-8" target="l9Vu41hiifNTBTkOHgr7-6" edge="1">
          <mxGeometry relative="1" as="geometry" />
        </mxCell>
        <mxCell id="n_Xed9ibIA65ynU_BDhb-24" value="Check If&amp;nbsp;&lt;br&gt;previous requests&lt;br&gt;&amp;nbsp;Exist" style="rhombus;whiteSpace=wrap;html=1;" parent="1" vertex="1">
          <mxGeometry x="480" y="1570" width="110" height="110" as="geometry" />
        </mxCell>
        <mxCell id="2RhHAe2CQzS2Qe744TcT-17" value="NO" style="edgeStyle=orthogonalEdgeStyle;rounded=0;orthogonalLoop=1;jettySize=auto;html=1;" parent="1" source="n_Xed9ibIA65ynU_BDhb-24" target="2RhHAe2CQzS2Qe744TcT-16" edge="1">
          <mxGeometry relative="1" as="geometry" />
        </mxCell>
        <mxCell id="n_Xed9ibIA65ynU_BDhb-25" value="" style="edgeStyle=orthogonalEdgeStyle;rounded=0;orthogonalLoop=1;jettySize=auto;html=1;" parent="1" source="n_Xed9ibIA65ynU_BDhb-15" target="n_Xed9ibIA65ynU_BDhb-24" edge="1">
          <mxGeometry relative="1" as="geometry" />
        </mxCell>
        <mxCell id="n_Xed9ibIA65ynU_BDhb-15" value="&lt;meta charset=&quot;utf-8&quot;&gt;&lt;span style=&quot;color: rgb(0, 0, 0); font-family: Helvetica; font-size: 12px; font-style: normal; font-variant-ligatures: normal; font-variant-caps: normal; font-weight: 400; letter-spacing: normal; orphans: 2; text-align: center; text-indent: 0px; text-transform: none; widows: 2; word-spacing: 0px; -webkit-text-stroke-width: 0px; background-color: rgb(251, 251, 251); text-decoration-thickness: initial; text-decoration-style: initial; text-decoration-color: initial; float: none; display: inline !important;&quot;&gt;Store Payload recived with Headers In DB&amp;nbsp;&lt;/span&gt;" style="shape=hexagon;perimeter=hexagonPerimeter2;whiteSpace=wrap;html=1;fixedSize=1;" parent="1" vertex="1">
          <mxGeometry x="300" y="1490" width="130" height="80" as="geometry" />
        </mxCell>
        <mxCell id="2RhHAe2CQzS2Qe744TcT-16" value="Create a New Document in DB" style="rounded=1;whiteSpace=wrap;html=1;" parent="1" vertex="1">
          <mxGeometry x="590" y="1540" width="120" height="60" as="geometry" />
        </mxCell>
        <mxCell id="2RhHAe2CQzS2Qe744TcT-21" style="edgeStyle=orthogonalEdgeStyle;rounded=0;orthogonalLoop=1;jettySize=auto;html=1;entryX=0;entryY=0.5;entryDx=0;entryDy=0;" parent="1" source="2RhHAe2CQzS2Qe744TcT-16" target="n_Xed9ibIA65ynU_BDhb-41" edge="1">
          <mxGeometry relative="1" as="geometry" />
        </mxCell>
        <UserObject label="CREATE INTIMATION AND CLAIM NO" link="data:page/id,0DPZlB081FTVNjkBk7KC" id="n_Xed9ibIA65ynU_BDhb-41">
          <mxCell style="shape=hexagon;perimeter=hexagonPerimeter2;whiteSpace=wrap;html=1;fixedSize=1;" parent="1" vertex="1">
            <mxGeometry x="760" y="1970" width="130" height="80" as="geometry" />
          </mxCell>
        </UserObject>
        <mxCell id="n_Xed9ibIA65ynU_BDhb-45" value="" style="edgeStyle=orthogonalEdgeStyle;rounded=0;orthogonalLoop=1;jettySize=auto;html=1;" parent="1" source="n_Xed9ibIA65ynU_BDhb-41" target="n_Xed9ibIA65ynU_BDhb-44" edge="1">
          <mxGeometry relative="1" as="geometry" />
        </mxCell>
        <UserObject label="" id="l9Vu41hiifNTBTkOHgr7-6">
          <mxCell style="shape=hexagon;perimeter=hexagonPerimeter2;whiteSpace=wrap;html=1;fixedSize=1;fillColor=#fff2cc;strokeColor=#d6b656;" parent="1" vertex="1">
            <mxGeometry x="860" y="1510" width="130" height="80" as="geometry" />
          </mxCell>
        </UserObject>
        <mxCell id="n_Xed9ibIA65ynU_BDhb-44" value="SUCESS" style="rhombus;whiteSpace=wrap;html=1;" parent="1" vertex="1">
          <mxGeometry x="1161" y="1530" width="80" height="80" as="geometry" />
        </mxCell>
        <mxCell id="n_Xed9ibIA65ynU_BDhb-53" value="" style="edgeStyle=orthogonalEdgeStyle;rounded=0;orthogonalLoop=1;jettySize=auto;html=1;" parent="1" source="n_Xed9ibIA65ynU_BDhb-44" target="n_Xed9ibIA65ynU_BDhb-52" edge="1">
          <mxGeometry relative="1" as="geometry" />
        </mxCell>
        <mxCell id="n_Xed9ibIA65ynU_BDhb-52" value="MAP TO NHCX RESPONSE&amp;nbsp; ERRORS" style="whiteSpace=wrap;html=1;" parent="1" vertex="1">
          <mxGeometry x="1390" y="820" width="120" height="60" as="geometry" />
        </mxCell>
        <mxCell id="-nmNVNPOFhX838iEL5Bt-79" style="edgeStyle=orthogonalEdgeStyle;rounded=0;orthogonalLoop=1;jettySize=auto;html=1;entryX=0;entryY=0.5;entryDx=0;entryDy=0;dashed=1;fillColor=#e51400;strokeColor=#B20000;strokeWidth=2;exitX=1;exitY=0.5;exitDx=0;exitDy=0;" edge="1" parent="1" source="-nmNVNPOFhX838iEL5Bt-18" target="-nmNVNPOFhX838iEL5Bt-72">
          <mxGeometry relative="1" as="geometry" />
        </mxCell>
        <mxCell id="-nmNVNPOFhX838iEL5Bt-82" style="edgeStyle=orthogonalEdgeStyle;rounded=0;orthogonalLoop=1;jettySize=auto;html=1;entryX=0;entryY=0.5;entryDx=0;entryDy=0;fillColor=#e51400;strokeColor=#B20000;strokeWidth=2;dashed=1;" edge="1" parent="1" source="-nmNVNPOFhX838iEL5Bt-19" target="-nmNVNPOFhX838iEL5Bt-72">
          <mxGeometry relative="1" as="geometry" />
        </mxCell>
        <mxCell id="-nmNVNPOFhX838iEL5Bt-83" style="edgeStyle=orthogonalEdgeStyle;rounded=0;orthogonalLoop=1;jettySize=auto;html=1;exitX=1;exitY=0.5;exitDx=0;exitDy=0;fillColor=#d5e8d4;gradientColor=#97d077;strokeColor=#82b366;strokeWidth=2;dashed=1;" edge="1" parent="1" source="-nmNVNPOFhX838iEL5Bt-17" target="-nmNVNPOFhX838iEL5Bt-53">
          <mxGeometry relative="1" as="geometry">
            <Array as="points">
              <mxPoint x="760" y="433" />
              <mxPoint x="760" y="740" />
              <mxPoint x="630" y="740" />
            </Array>
          </mxGeometry>
        </mxCell>
        <mxCell id="-nmNVNPOFhX838iEL5Bt-85" style="edgeStyle=orthogonalEdgeStyle;rounded=0;orthogonalLoop=1;jettySize=auto;html=1;strokeWidth=2;fillColor=#d5e8d4;gradientColor=#97d077;strokeColor=#82b366;dashed=1;exitX=1;exitY=0.5;exitDx=0;exitDy=0;" edge="1" parent="1" source="-nmNVNPOFhX838iEL5Bt-20">
          <mxGeometry relative="1" as="geometry">
            <mxPoint x="730" y="553" as="sourcePoint" />
            <mxPoint x="630" y="770" as="targetPoint" />
            <Array as="points">
              <mxPoint x="760" y="553" />
              <mxPoint x="760" y="740" />
              <mxPoint x="630" y="740" />
            </Array>
          </mxGeometry>
        </mxCell>
      </root>
    </mxGraphModel>
  </diagram>
  <diagram id="0DPZlB081FTVNjkBk7KC" name="create Intimation and  claim">
    <mxGraphModel dx="954" dy="526" grid="1" gridSize="10" guides="1" tooltips="1" connect="1" arrows="1" fold="1" page="1" pageScale="1" pageWidth="827" pageHeight="1169" math="0" shadow="0">
      <root>
        <mxCell id="0" />
        <mxCell id="1" parent="0" />
        <mxCell id="bLgeyS6EQl_RyTogpNhn-4" value="" style="edgeStyle=orthogonalEdgeStyle;rounded=0;orthogonalLoop=1;jettySize=auto;html=1;" parent="1" source="bLgeyS6EQl_RyTogpNhn-2" target="bLgeyS6EQl_RyTogpNhn-3" edge="1">
          <mxGeometry relative="1" as="geometry" />
        </mxCell>
        <mxCell id="bLgeyS6EQl_RyTogpNhn-2" value="PayLoad" style="ellipse;whiteSpace=wrap;html=1;" parent="1" vertex="1">
          <mxGeometry x="80" y="190" width="120" height="40" as="geometry" />
        </mxCell>
        <mxCell id="bLgeyS6EQl_RyTogpNhn-6" value="" style="edgeStyle=orthogonalEdgeStyle;rounded=0;orthogonalLoop=1;jettySize=auto;html=1;" parent="1" source="bLgeyS6EQl_RyTogpNhn-3" target="bLgeyS6EQl_RyTogpNhn-5" edge="1">
          <mxGeometry relative="1" as="geometry" />
        </mxCell>
        <mxCell id="bLgeyS6EQl_RyTogpNhn-3" value="Validate If Payload has all data present" style="rounded=1;whiteSpace=wrap;html=1;" parent="1" vertex="1">
          <mxGeometry x="80" y="300" width="120" height="60" as="geometry" />
        </mxCell>
        <mxCell id="bLgeyS6EQl_RyTogpNhn-8" value="YES" style="edgeStyle=orthogonalEdgeStyle;rounded=0;orthogonalLoop=1;jettySize=auto;html=1;" parent="1" source="bLgeyS6EQl_RyTogpNhn-5" target="bLgeyS6EQl_RyTogpNhn-7" edge="1">
          <mxGeometry relative="1" as="geometry" />
        </mxCell>
        <mxCell id="bLgeyS6EQl_RyTogpNhn-10" value="NO" style="edgeStyle=orthogonalEdgeStyle;rounded=0;orthogonalLoop=1;jettySize=auto;html=1;" parent="1" source="bLgeyS6EQl_RyTogpNhn-5" target="bLgeyS6EQl_RyTogpNhn-9" edge="1">
          <mxGeometry relative="1" as="geometry" />
        </mxCell>
        <mxCell id="bLgeyS6EQl_RyTogpNhn-5" value="Sucess" style="rhombus;whiteSpace=wrap;html=1;rounded=1;" parent="1" vertex="1">
          <mxGeometry x="100" y="430" width="80" height="80" as="geometry" />
        </mxCell>
        <mxCell id="bLgeyS6EQl_RyTogpNhn-12" value="" style="edgeStyle=orthogonalEdgeStyle;rounded=0;orthogonalLoop=1;jettySize=auto;html=1;" parent="1" source="bLgeyS6EQl_RyTogpNhn-7" target="bLgeyS6EQl_RyTogpNhn-11" edge="1">
          <mxGeometry relative="1" as="geometry" />
        </mxCell>
        <mxCell id="bLgeyS6EQl_RyTogpNhn-7" value="Use Create Inimation APi For SPA,&lt;br&gt;add aditonal field for NHCXlogs_id&lt;br&gt;and origin from NHCX" style="whiteSpace=wrap;html=1;rounded=1;" parent="1" vertex="1">
          <mxGeometry x="270" y="400" width="180" height="140" as="geometry" />
        </mxCell>
        <mxCell id="bLgeyS6EQl_RyTogpNhn-9" value="return Error with&amp;nbsp; proper key missed&amp;nbsp; in payload" style="whiteSpace=wrap;html=1;rounded=1;" parent="1" vertex="1">
          <mxGeometry x="80" y="600" width="120" height="60" as="geometry" />
        </mxCell>
        <mxCell id="bLgeyS6EQl_RyTogpNhn-11" value="use Create Inward API&amp;nbsp;" style="whiteSpace=wrap;html=1;rounded=1;" parent="1" vertex="1">
          <mxGeometry x="630" y="440" width="120" height="60" as="geometry" />
        </mxCell>
        <mxCell id="jTrsGdZeVuQRLbyiMDEm-3" value="" style="group" vertex="1" connectable="0" parent="1">
          <mxGeometry x="30" y="750" width="840" height="240" as="geometry" />
        </mxCell>
        <mxCell id="jTrsGdZeVuQRLbyiMDEm-1" value="" style="rounded=0;whiteSpace=wrap;html=1;" vertex="1" parent="jTrsGdZeVuQRLbyiMDEm-3">
          <mxGeometry y="20" width="840" height="220" as="geometry" />
        </mxCell>
        <mxCell id="jTrsGdZeVuQRLbyiMDEm-2" value="" style="image;aspect=fixed;perimeter=ellipsePerimeter;html=1;align=center;shadow=0;dashed=0;spacingTop=3;image=img/lib/active_directory/database_server.svg;" vertex="1" parent="jTrsGdZeVuQRLbyiMDEm-3">
          <mxGeometry x="9" width="41" height="50" as="geometry" />
        </mxCell>
        <UserObject label="Claim Intimation" id="ksRkRk9edxzG5ikfGW5q-1">
          <mxCell style="swimlane;whiteSpace=wrap;html=1;" vertex="1" collapsed="1" parent="jTrsGdZeVuQRLbyiMDEm-3">
            <mxGeometry x="80" y="90" width="120" height="30" as="geometry">
              <mxRectangle x="80" y="90" width="140" height="80" as="alternateBounds" />
            </mxGeometry>
          </mxCell>
        </UserObject>
        <mxCell id="ksRkRk9edxzG5ikfGW5q-2" style="edgeStyle=orthogonalEdgeStyle;rounded=0;orthogonalLoop=1;jettySize=auto;html=1;entryX=1;entryY=0.5;entryDx=0;entryDy=0;" edge="1" parent="1" source="bLgeyS6EQl_RyTogpNhn-7" target="ksRkRk9edxzG5ikfGW5q-1">
          <mxGeometry relative="1" as="geometry">
            <Array as="points">
              <mxPoint x="360" y="855" />
            </Array>
          </mxGeometry>
        </mxCell>
      </root>
    </mxGraphModel>
  </diagram>
  <diagram id="4wlm6lmaPrlt67HvVmds" name="schema NHCX logs">
    <mxGraphModel dx="954" dy="526" grid="1" gridSize="10" guides="1" tooltips="1" connect="1" arrows="1" fold="1" page="1" pageScale="1" pageWidth="827" pageHeight="1169" math="0" shadow="0">
      <root>
        <mxCell id="0" />
        <mxCell id="1" parent="0" />
        <mxCell id="YQpDddAUyEyW4kxvSw8K-27" value="NHCX Logs" style="shape=table;startSize=20;container=1;collapsible=0;childLayout=tableLayout;strokeColor=default;fontSize=16;" vertex="1" parent="1">
          <mxGeometry x="90" y="730" width="350" height="374" as="geometry" />
        </mxCell>
        <mxCell id="YQpDddAUyEyW4kxvSw8K-28" value="" style="shape=tableRow;horizontal=0;startSize=0;swimlaneHead=0;swimlaneBody=0;strokeColor=inherit;top=0;left=0;bottom=0;right=0;collapsible=0;dropTarget=0;fillColor=none;points=[[0,0.5],[1,0.5]];portConstraint=eastwest;fontSize=16;" vertex="1" parent="YQpDddAUyEyW4kxvSw8K-27">
          <mxGeometry y="20" width="350" height="26" as="geometry" />
        </mxCell>
        <mxCell id="YQpDddAUyEyW4kxvSw8K-29" value="PK" style="shape=partialRectangle;html=1;whiteSpace=wrap;connectable=0;strokeColor=inherit;overflow=hidden;fillColor=none;top=0;left=0;bottom=0;right=0;pointerEvents=1;fontSize=16;" vertex="1" parent="YQpDddAUyEyW4kxvSw8K-28">
          <mxGeometry width="80" height="26" as="geometry">
            <mxRectangle width="80" height="26" as="alternateBounds" />
          </mxGeometry>
        </mxCell>
        <mxCell id="YQpDddAUyEyW4kxvSw8K-30" value="_id" style="shape=partialRectangle;html=1;whiteSpace=wrap;connectable=0;strokeColor=inherit;overflow=hidden;fillColor=none;top=0;left=0;bottom=0;right=0;pointerEvents=1;fontSize=16;" vertex="1" parent="YQpDddAUyEyW4kxvSw8K-28">
          <mxGeometry x="80" width="120" height="26" as="geometry">
            <mxRectangle width="120" height="26" as="alternateBounds" />
          </mxGeometry>
        </mxCell>
        <mxCell id="YQpDddAUyEyW4kxvSw8K-31" value="" style="shape=partialRectangle;html=1;whiteSpace=wrap;connectable=0;strokeColor=inherit;overflow=hidden;fillColor=none;top=0;left=0;bottom=0;right=0;pointerEvents=1;fontSize=16;" vertex="1" parent="YQpDddAUyEyW4kxvSw8K-28">
          <mxGeometry x="200" width="150" height="26" as="geometry">
            <mxRectangle width="150" height="26" as="alternateBounds" />
          </mxGeometry>
        </mxCell>
        <mxCell id="YQpDddAUyEyW4kxvSw8K-32" value="" style="shape=tableRow;horizontal=0;startSize=0;swimlaneHead=0;swimlaneBody=0;strokeColor=inherit;top=0;left=0;bottom=0;right=0;collapsible=0;dropTarget=0;fillColor=none;points=[[0,0.5],[1,0.5]];portConstraint=eastwest;fontSize=16;" vertex="1" parent="YQpDddAUyEyW4kxvSw8K-27">
          <mxGeometry y="46" width="350" height="44" as="geometry" />
        </mxCell>
        <mxCell id="YQpDddAUyEyW4kxvSw8K-33" value="FK1" style="shape=partialRectangle;html=1;whiteSpace=wrap;connectable=0;strokeColor=inherit;overflow=hidden;fillColor=none;top=0;left=0;bottom=0;right=0;pointerEvents=1;fontSize=16;" vertex="1" parent="YQpDddAUyEyW4kxvSw8K-32">
          <mxGeometry width="80" height="44" as="geometry">
            <mxRectangle width="80" height="44" as="alternateBounds" />
          </mxGeometry>
        </mxCell>
        <mxCell id="YQpDddAUyEyW4kxvSw8K-34" value="Claim no" style="shape=partialRectangle;html=1;whiteSpace=wrap;connectable=0;strokeColor=inherit;overflow=hidden;fillColor=none;top=0;left=0;bottom=0;right=0;pointerEvents=1;fontSize=16;" vertex="1" parent="YQpDddAUyEyW4kxvSw8K-32">
          <mxGeometry x="80" width="120" height="44" as="geometry">
            <mxRectangle width="120" height="44" as="alternateBounds" />
          </mxGeometry>
        </mxCell>
        <mxCell id="YQpDddAUyEyW4kxvSw8K-35" value="N&lt;span style=&quot;font-family: Verdana; font-size: 12px; text-align: left;&quot;&gt;on Mandstory String&lt;/span&gt;" style="shape=partialRectangle;html=1;whiteSpace=wrap;connectable=0;strokeColor=inherit;overflow=hidden;fillColor=none;top=0;left=0;bottom=0;right=0;pointerEvents=1;fontSize=16;" vertex="1" parent="YQpDddAUyEyW4kxvSw8K-32">
          <mxGeometry x="200" width="150" height="44" as="geometry">
            <mxRectangle width="150" height="44" as="alternateBounds" />
          </mxGeometry>
        </mxCell>
        <mxCell id="YQpDddAUyEyW4kxvSw8K-36" value="" style="shape=tableRow;horizontal=0;startSize=0;swimlaneHead=0;swimlaneBody=0;strokeColor=inherit;top=0;left=0;bottom=0;right=0;collapsible=0;dropTarget=0;fillColor=none;points=[[0,0.5],[1,0.5]];portConstraint=eastwest;fontSize=16;" vertex="1" parent="YQpDddAUyEyW4kxvSw8K-27">
          <mxGeometry y="90" width="350" height="60" as="geometry" />
        </mxCell>
        <mxCell id="YQpDddAUyEyW4kxvSw8K-37" value="FK2" style="shape=partialRectangle;html=1;whiteSpace=wrap;connectable=0;strokeColor=inherit;overflow=hidden;fillColor=none;top=0;left=0;bottom=0;right=0;pointerEvents=1;fontSize=16;" vertex="1" parent="YQpDddAUyEyW4kxvSw8K-36">
          <mxGeometry width="80" height="60" as="geometry">
            <mxRectangle width="80" height="60" as="alternateBounds" />
          </mxGeometry>
        </mxCell>
        <mxCell id="YQpDddAUyEyW4kxvSw8K-38" value="Claim_ID" style="shape=partialRectangle;html=1;whiteSpace=wrap;connectable=0;strokeColor=inherit;overflow=hidden;fillColor=none;top=0;left=0;bottom=0;right=0;pointerEvents=1;fontSize=16;" vertex="1" parent="YQpDddAUyEyW4kxvSw8K-36">
          <mxGeometry x="80" width="120" height="60" as="geometry">
            <mxRectangle width="120" height="60" as="alternateBounds" />
          </mxGeometry>
        </mxCell>
        <mxCell id="YQpDddAUyEyW4kxvSw8K-39" value="_id for baseclaim&amp;nbsp;" style="shape=partialRectangle;html=1;whiteSpace=wrap;connectable=0;strokeColor=inherit;overflow=hidden;fillColor=none;top=0;left=0;bottom=0;right=0;pointerEvents=1;fontSize=16;" vertex="1" parent="YQpDddAUyEyW4kxvSw8K-36">
          <mxGeometry x="200" width="150" height="60" as="geometry">
            <mxRectangle width="150" height="60" as="alternateBounds" />
          </mxGeometry>
        </mxCell>
        <mxCell id="YQpDddAUyEyW4kxvSw8K-52" style="shape=tableRow;horizontal=0;startSize=0;swimlaneHead=0;swimlaneBody=0;strokeColor=inherit;top=0;left=0;bottom=0;right=0;collapsible=0;dropTarget=0;fillColor=none;points=[[0,0.5],[1,0.5]];portConstraint=eastwest;fontSize=16;" vertex="1" parent="YQpDddAUyEyW4kxvSw8K-27">
          <mxGeometry y="150" width="350" height="56" as="geometry" />
        </mxCell>
        <mxCell id="YQpDddAUyEyW4kxvSw8K-53" value="PK" style="shape=partialRectangle;html=1;whiteSpace=wrap;connectable=0;strokeColor=inherit;overflow=hidden;fillColor=none;top=0;left=0;bottom=0;right=0;pointerEvents=1;fontSize=16;" vertex="1" parent="YQpDddAUyEyW4kxvSw8K-52">
          <mxGeometry width="80" height="56" as="geometry">
            <mxRectangle width="80" height="56" as="alternateBounds" />
          </mxGeometry>
        </mxCell>
        <mxCell id="YQpDddAUyEyW4kxvSw8K-54" value="NHCXID" style="shape=partialRectangle;html=1;whiteSpace=wrap;connectable=0;strokeColor=inherit;overflow=hidden;fillColor=none;top=0;left=0;bottom=0;right=0;pointerEvents=1;fontSize=16;" vertex="1" parent="YQpDddAUyEyW4kxvSw8K-52">
          <mxGeometry x="80" width="120" height="56" as="geometry">
            <mxRectangle width="120" height="56" as="alternateBounds" />
          </mxGeometry>
        </mxCell>
        <mxCell id="YQpDddAUyEyW4kxvSw8K-55" value="Unique NHCX identifier" style="shape=partialRectangle;html=1;whiteSpace=wrap;connectable=0;strokeColor=inherit;overflow=hidden;fillColor=none;top=0;left=0;bottom=0;right=0;pointerEvents=1;fontSize=16;" vertex="1" parent="YQpDddAUyEyW4kxvSw8K-52">
          <mxGeometry x="200" width="150" height="56" as="geometry">
            <mxRectangle width="150" height="56" as="alternateBounds" />
          </mxGeometry>
        </mxCell>
        <mxCell id="YQpDddAUyEyW4kxvSw8K-48" style="shape=tableRow;horizontal=0;startSize=0;swimlaneHead=0;swimlaneBody=0;strokeColor=inherit;top=0;left=0;bottom=0;right=0;collapsible=0;dropTarget=0;fillColor=none;points=[[0,0.5],[1,0.5]];portConstraint=eastwest;fontSize=16;" vertex="1" parent="YQpDddAUyEyW4kxvSw8K-27">
          <mxGeometry y="206" width="350" height="56" as="geometry" />
        </mxCell>
        <mxCell id="YQpDddAUyEyW4kxvSw8K-49" style="shape=partialRectangle;html=1;whiteSpace=wrap;connectable=0;strokeColor=inherit;overflow=hidden;fillColor=none;top=0;left=0;bottom=0;right=0;pointerEvents=1;fontSize=16;" vertex="1" parent="YQpDddAUyEyW4kxvSw8K-48">
          <mxGeometry width="80" height="56" as="geometry">
            <mxRectangle width="80" height="56" as="alternateBounds" />
          </mxGeometry>
        </mxCell>
        <mxCell id="YQpDddAUyEyW4kxvSw8K-50" value="requests" style="shape=partialRectangle;html=1;whiteSpace=wrap;connectable=0;strokeColor=inherit;overflow=hidden;fillColor=none;top=0;left=0;bottom=0;right=0;pointerEvents=1;fontSize=16;" vertex="1" parent="YQpDddAUyEyW4kxvSw8K-48">
          <mxGeometry x="80" width="120" height="56" as="geometry">
            <mxRectangle width="120" height="56" as="alternateBounds" />
          </mxGeometry>
        </mxCell>
        <mxCell id="YQpDddAUyEyW4kxvSw8K-51" value="required Array of objects" style="shape=partialRectangle;html=1;whiteSpace=wrap;connectable=0;strokeColor=inherit;overflow=hidden;fillColor=none;top=0;left=0;bottom=0;right=0;pointerEvents=1;fontSize=16;" vertex="1" parent="YQpDddAUyEyW4kxvSw8K-48">
          <mxGeometry x="200" width="150" height="56" as="geometry">
            <mxRectangle width="150" height="56" as="alternateBounds" />
          </mxGeometry>
        </mxCell>
        <mxCell id="YQpDddAUyEyW4kxvSw8K-44" style="shape=tableRow;horizontal=0;startSize=0;swimlaneHead=0;swimlaneBody=0;strokeColor=inherit;top=0;left=0;bottom=0;right=0;collapsible=0;dropTarget=0;fillColor=none;points=[[0,0.5],[1,0.5]];portConstraint=eastwest;fontSize=16;" vertex="1" parent="YQpDddAUyEyW4kxvSw8K-27">
          <mxGeometry y="262" width="350" height="56" as="geometry" />
        </mxCell>
        <mxCell id="YQpDddAUyEyW4kxvSw8K-45" style="shape=partialRectangle;html=1;whiteSpace=wrap;connectable=0;strokeColor=inherit;overflow=hidden;fillColor=none;top=0;left=0;bottom=0;right=0;pointerEvents=1;fontSize=16;" vertex="1" parent="YQpDddAUyEyW4kxvSw8K-44">
          <mxGeometry width="80" height="56" as="geometry">
            <mxRectangle width="80" height="56" as="alternateBounds" />
          </mxGeometry>
        </mxCell>
        <mxCell id="YQpDddAUyEyW4kxvSw8K-46" value="responses" style="shape=partialRectangle;html=1;whiteSpace=wrap;connectable=0;strokeColor=inherit;overflow=hidden;fillColor=none;top=0;left=0;bottom=0;right=0;pointerEvents=1;fontSize=16;" vertex="1" parent="YQpDddAUyEyW4kxvSw8K-44">
          <mxGeometry x="80" width="120" height="56" as="geometry">
            <mxRectangle width="120" height="56" as="alternateBounds" />
          </mxGeometry>
        </mxCell>
        <mxCell id="YQpDddAUyEyW4kxvSw8K-47" value="Array of objects" style="shape=partialRectangle;html=1;whiteSpace=wrap;connectable=0;strokeColor=inherit;overflow=hidden;fillColor=none;top=0;left=0;bottom=0;right=0;pointerEvents=1;fontSize=16;" vertex="1" parent="YQpDddAUyEyW4kxvSw8K-44">
          <mxGeometry x="200" width="150" height="56" as="geometry">
            <mxRectangle width="150" height="56" as="alternateBounds" />
          </mxGeometry>
        </mxCell>
        <mxCell id="YQpDddAUyEyW4kxvSw8K-40" style="shape=tableRow;horizontal=0;startSize=0;swimlaneHead=0;swimlaneBody=0;strokeColor=inherit;top=0;left=0;bottom=0;right=0;collapsible=0;dropTarget=0;fillColor=none;points=[[0,0.5],[1,0.5]];portConstraint=eastwest;fontSize=16;" vertex="1" parent="YQpDddAUyEyW4kxvSw8K-27">
          <mxGeometry y="318" width="350" height="56" as="geometry" />
        </mxCell>
        <mxCell id="YQpDddAUyEyW4kxvSw8K-41" style="shape=partialRectangle;html=1;whiteSpace=wrap;connectable=0;strokeColor=inherit;overflow=hidden;fillColor=none;top=0;left=0;bottom=0;right=0;pointerEvents=1;fontSize=16;" vertex="1" parent="YQpDddAUyEyW4kxvSw8K-40">
          <mxGeometry width="80" height="56" as="geometry">
            <mxRectangle width="80" height="56" as="alternateBounds" />
          </mxGeometry>
        </mxCell>
        <mxCell id="YQpDddAUyEyW4kxvSw8K-42" value="CurrentStatus" style="shape=partialRectangle;html=1;whiteSpace=wrap;connectable=0;strokeColor=inherit;overflow=hidden;fillColor=none;top=0;left=0;bottom=0;right=0;pointerEvents=1;fontSize=16;" vertex="1" parent="YQpDddAUyEyW4kxvSw8K-40">
          <mxGeometry x="80" width="120" height="56" as="geometry">
            <mxRectangle width="120" height="56" as="alternateBounds" />
          </mxGeometry>
        </mxCell>
        <mxCell id="YQpDddAUyEyW4kxvSw8K-43" value="String of type status&amp;nbsp;" style="shape=partialRectangle;html=1;whiteSpace=wrap;connectable=0;strokeColor=inherit;overflow=hidden;fillColor=none;top=0;left=0;bottom=0;right=0;pointerEvents=1;fontSize=16;" vertex="1" parent="YQpDddAUyEyW4kxvSw8K-40">
          <mxGeometry x="200" width="150" height="56" as="geometry">
            <mxRectangle width="150" height="56" as="alternateBounds" />
          </mxGeometry>
        </mxCell>
        <mxCell id="YQpDddAUyEyW4kxvSw8K-94" value="Enum Status" style="swimlane;whiteSpace=wrap;html=1;" vertex="1" collapsed="1" parent="1">
          <mxGeometry x="470" y="1061" width="110" height="30" as="geometry">
            <mxRectangle x="300" y="1180" width="260" height="200" as="alternateBounds" />
          </mxGeometry>
        </mxCell>
        <mxCell id="YQpDddAUyEyW4kxvSw8K-99" value="" style="shape=table;startSize=0;container=1;collapsible=0;childLayout=tableLayout;fixedRows=1;rowLines=0;fontStyle=0;strokeColor=default;fontSize=16;" vertex="1" parent="YQpDddAUyEyW4kxvSw8K-94">
          <mxGeometry x="10" y="40" width="250" height="150" as="geometry" />
        </mxCell>
        <mxCell id="YQpDddAUyEyW4kxvSw8K-100" value="" style="shape=tableRow;horizontal=0;startSize=0;swimlaneHead=0;swimlaneBody=0;top=0;left=0;bottom=0;right=0;collapsible=0;dropTarget=0;fillColor=none;points=[[0,0.5],[1,0.5]];portConstraint=eastwest;strokeColor=inherit;fontSize=16;" vertex="1" parent="YQpDddAUyEyW4kxvSw8K-99">
          <mxGeometry width="250" height="30" as="geometry" />
        </mxCell>
        <mxCell id="YQpDddAUyEyW4kxvSw8K-101" value="1" style="shape=partialRectangle;html=1;whiteSpace=wrap;connectable=0;fillColor=none;top=0;left=0;bottom=0;right=0;overflow=hidden;pointerEvents=1;strokeColor=inherit;fontSize=16;" vertex="1" parent="YQpDddAUyEyW4kxvSw8K-100">
          <mxGeometry width="56" height="30" as="geometry">
            <mxRectangle width="56" height="30" as="alternateBounds" />
          </mxGeometry>
        </mxCell>
        <mxCell id="YQpDddAUyEyW4kxvSw8K-102" value="Request Recived" style="shape=partialRectangle;html=1;whiteSpace=wrap;connectable=0;fillColor=none;top=0;left=0;bottom=0;right=0;align=left;spacingLeft=6;overflow=hidden;strokeColor=inherit;fontSize=16;" vertex="1" parent="YQpDddAUyEyW4kxvSw8K-100">
          <mxGeometry x="56" width="194" height="30" as="geometry">
            <mxRectangle width="194" height="30" as="alternateBounds" />
          </mxGeometry>
        </mxCell>
        <mxCell id="YQpDddAUyEyW4kxvSw8K-103" value="" style="shape=tableRow;horizontal=0;startSize=0;swimlaneHead=0;swimlaneBody=0;top=0;left=0;bottom=0;right=0;collapsible=0;dropTarget=0;fillColor=none;points=[[0,0.5],[1,0.5]];portConstraint=eastwest;strokeColor=inherit;fontSize=16;" vertex="1" parent="YQpDddAUyEyW4kxvSw8K-99">
          <mxGeometry y="30" width="250" height="30" as="geometry" />
        </mxCell>
        <mxCell id="YQpDddAUyEyW4kxvSw8K-104" value="2" style="shape=partialRectangle;html=1;whiteSpace=wrap;connectable=0;fillColor=none;top=0;left=0;bottom=0;right=0;overflow=hidden;strokeColor=inherit;fontSize=16;" vertex="1" parent="YQpDddAUyEyW4kxvSw8K-103">
          <mxGeometry width="56" height="30" as="geometry">
            <mxRectangle width="56" height="30" as="alternateBounds" />
          </mxGeometry>
        </mxCell>
        <mxCell id="YQpDddAUyEyW4kxvSw8K-105" value="Reqest processing&amp;nbsp;" style="shape=partialRectangle;html=1;whiteSpace=wrap;connectable=0;fillColor=none;top=0;left=0;bottom=0;right=0;align=left;spacingLeft=6;overflow=hidden;strokeColor=inherit;fontSize=16;" vertex="1" parent="YQpDddAUyEyW4kxvSw8K-103">
          <mxGeometry x="56" width="194" height="30" as="geometry">
            <mxRectangle width="194" height="30" as="alternateBounds" />
          </mxGeometry>
        </mxCell>
        <mxCell id="YQpDddAUyEyW4kxvSw8K-106" value="" style="shape=tableRow;horizontal=0;startSize=0;swimlaneHead=0;swimlaneBody=0;top=0;left=0;bottom=0;right=0;collapsible=0;dropTarget=0;fillColor=none;points=[[0,0.5],[1,0.5]];portConstraint=eastwest;strokeColor=inherit;fontSize=16;" vertex="1" parent="YQpDddAUyEyW4kxvSw8K-99">
          <mxGeometry y="60" width="250" height="30" as="geometry" />
        </mxCell>
        <mxCell id="YQpDddAUyEyW4kxvSw8K-107" value="3" style="shape=partialRectangle;html=1;whiteSpace=wrap;connectable=0;fillColor=none;top=0;left=0;bottom=0;right=0;overflow=hidden;strokeColor=inherit;fontSize=16;" vertex="1" parent="YQpDddAUyEyW4kxvSw8K-106">
          <mxGeometry width="56" height="30" as="geometry">
            <mxRectangle width="56" height="30" as="alternateBounds" />
          </mxGeometry>
        </mxCell>
        <mxCell id="YQpDddAUyEyW4kxvSw8K-108" value="Claim Generated" style="shape=partialRectangle;html=1;whiteSpace=wrap;connectable=0;fillColor=none;top=0;left=0;bottom=0;right=0;align=left;spacingLeft=6;overflow=hidden;strokeColor=inherit;fontSize=16;" vertex="1" parent="YQpDddAUyEyW4kxvSw8K-106">
          <mxGeometry x="56" width="194" height="30" as="geometry">
            <mxRectangle width="194" height="30" as="alternateBounds" />
          </mxGeometry>
        </mxCell>
        <mxCell id="YQpDddAUyEyW4kxvSw8K-109" value="" style="shape=tableRow;horizontal=0;startSize=0;swimlaneHead=0;swimlaneBody=0;top=0;left=0;bottom=0;right=0;collapsible=0;dropTarget=0;fillColor=none;points=[[0,0.5],[1,0.5]];portConstraint=eastwest;strokeColor=inherit;fontSize=16;" vertex="1" parent="YQpDddAUyEyW4kxvSw8K-99">
          <mxGeometry y="90" width="250" height="30" as="geometry" />
        </mxCell>
        <mxCell id="YQpDddAUyEyW4kxvSw8K-110" value="4" style="shape=partialRectangle;html=1;whiteSpace=wrap;connectable=0;fillColor=none;top=0;left=0;bottom=0;right=0;overflow=hidden;strokeColor=inherit;fontSize=16;" vertex="1" parent="YQpDddAUyEyW4kxvSw8K-109">
          <mxGeometry width="56" height="30" as="geometry">
            <mxRectangle width="56" height="30" as="alternateBounds" />
          </mxGeometry>
        </mxCell>
        <mxCell id="YQpDddAUyEyW4kxvSw8K-111" value="Error&amp;nbsp;" style="shape=partialRectangle;html=1;whiteSpace=wrap;connectable=0;fillColor=none;top=0;left=0;bottom=0;right=0;align=left;spacingLeft=6;overflow=hidden;strokeColor=inherit;fontSize=16;" vertex="1" parent="YQpDddAUyEyW4kxvSw8K-109">
          <mxGeometry x="56" width="194" height="30" as="geometry">
            <mxRectangle width="194" height="30" as="alternateBounds" />
          </mxGeometry>
        </mxCell>
        <mxCell id="YQpDddAUyEyW4kxvSw8K-112" value="" style="shape=tableRow;horizontal=0;startSize=0;swimlaneHead=0;swimlaneBody=0;top=0;left=0;bottom=0;right=0;collapsible=0;dropTarget=0;fillColor=none;points=[[0,0.5],[1,0.5]];portConstraint=eastwest;strokeColor=inherit;fontSize=16;" vertex="1" parent="YQpDddAUyEyW4kxvSw8K-99">
          <mxGeometry y="120" width="250" height="30" as="geometry" />
        </mxCell>
        <mxCell id="YQpDddAUyEyW4kxvSw8K-113" value="4" style="shape=partialRectangle;html=1;whiteSpace=wrap;connectable=0;fillColor=none;top=0;left=0;bottom=0;right=0;overflow=hidden;strokeColor=inherit;fontSize=16;" vertex="1" parent="YQpDddAUyEyW4kxvSw8K-112">
          <mxGeometry width="56" height="30" as="geometry">
            <mxRectangle width="56" height="30" as="alternateBounds" />
          </mxGeometry>
        </mxCell>
        <mxCell id="YQpDddAUyEyW4kxvSw8K-114" value="claim Processed" style="shape=partialRectangle;html=1;whiteSpace=wrap;connectable=0;fillColor=none;top=0;left=0;bottom=0;right=0;align=left;spacingLeft=6;overflow=hidden;strokeColor=inherit;fontSize=16;" vertex="1" parent="YQpDddAUyEyW4kxvSw8K-112">
          <mxGeometry x="56" width="194" height="30" as="geometry">
            <mxRectangle width="194" height="30" as="alternateBounds" />
          </mxGeometry>
        </mxCell>
        <mxCell id="YQpDddAUyEyW4kxvSw8K-95" style="edgeStyle=orthogonalEdgeStyle;rounded=0;orthogonalLoop=1;jettySize=auto;html=1;" edge="1" parent="1" source="YQpDddAUyEyW4kxvSw8K-40" target="YQpDddAUyEyW4kxvSw8K-94">
          <mxGeometry relative="1" as="geometry" />
        </mxCell>
        <mxCell id="YQpDddAUyEyW4kxvSw8K-115" value="request Object" style="swimlane;whiteSpace=wrap;html=1;" vertex="1" collapsed="1" parent="1">
          <mxGeometry x="470" y="949" width="110" height="30" as="geometry">
            <mxRectangle x="470" y="949" width="280" height="221" as="alternateBounds" />
          </mxGeometry>
        </mxCell>
        <mxCell id="YQpDddAUyEyW4kxvSw8K-159" value="" style="shape=table;startSize=0;container=1;collapsible=0;childLayout=tableLayout;fontSize=16;" vertex="1" parent="YQpDddAUyEyW4kxvSw8K-115">
          <mxGeometry x="10" y="41" width="260" height="160" as="geometry" />
        </mxCell>
        <mxCell id="YQpDddAUyEyW4kxvSw8K-160" value="" style="shape=tableRow;horizontal=0;startSize=0;swimlaneHead=0;swimlaneBody=0;strokeColor=inherit;top=0;left=0;bottom=0;right=0;collapsible=0;dropTarget=0;fillColor=none;points=[[0,0.5],[1,0.5]];portConstraint=eastwest;fontSize=16;" vertex="1" parent="YQpDddAUyEyW4kxvSw8K-159">
          <mxGeometry width="260" height="40" as="geometry" />
        </mxCell>
        <mxCell id="YQpDddAUyEyW4kxvSw8K-161" value="Body" style="shape=partialRectangle;html=1;whiteSpace=wrap;connectable=0;strokeColor=inherit;overflow=hidden;fillColor=none;top=0;left=0;bottom=0;right=0;pointerEvents=1;fontSize=16;" vertex="1" parent="YQpDddAUyEyW4kxvSw8K-160">
          <mxGeometry width="130" height="40" as="geometry">
            <mxRectangle width="130" height="40" as="alternateBounds" />
          </mxGeometry>
        </mxCell>
        <mxCell id="YQpDddAUyEyW4kxvSw8K-162" value="Object" style="shape=partialRectangle;html=1;whiteSpace=wrap;connectable=0;strokeColor=inherit;overflow=hidden;fillColor=none;top=0;left=0;bottom=0;right=0;pointerEvents=1;fontSize=16;" vertex="1" parent="YQpDddAUyEyW4kxvSw8K-160">
          <mxGeometry x="130" width="130" height="40" as="geometry">
            <mxRectangle width="130" height="40" as="alternateBounds" />
          </mxGeometry>
        </mxCell>
        <mxCell id="YQpDddAUyEyW4kxvSw8K-164" value="" style="shape=tableRow;horizontal=0;startSize=0;swimlaneHead=0;swimlaneBody=0;strokeColor=inherit;top=0;left=0;bottom=0;right=0;collapsible=0;dropTarget=0;fillColor=none;points=[[0,0.5],[1,0.5]];portConstraint=eastwest;fontSize=16;" vertex="1" parent="YQpDddAUyEyW4kxvSw8K-159">
          <mxGeometry y="40" width="260" height="40" as="geometry" />
        </mxCell>
        <mxCell id="YQpDddAUyEyW4kxvSw8K-165" value="Query Params" style="shape=partialRectangle;html=1;whiteSpace=wrap;connectable=0;strokeColor=inherit;overflow=hidden;fillColor=none;top=0;left=0;bottom=0;right=0;pointerEvents=1;fontSize=16;" vertex="1" parent="YQpDddAUyEyW4kxvSw8K-164">
          <mxGeometry width="130" height="40" as="geometry">
            <mxRectangle width="130" height="40" as="alternateBounds" />
          </mxGeometry>
        </mxCell>
        <mxCell id="YQpDddAUyEyW4kxvSw8K-166" value="Object" style="shape=partialRectangle;html=1;whiteSpace=wrap;connectable=0;strokeColor=inherit;overflow=hidden;fillColor=none;top=0;left=0;bottom=0;right=0;pointerEvents=1;fontSize=16;" vertex="1" parent="YQpDddAUyEyW4kxvSw8K-164">
          <mxGeometry x="130" width="130" height="40" as="geometry">
            <mxRectangle width="130" height="40" as="alternateBounds" />
          </mxGeometry>
        </mxCell>
        <mxCell id="YQpDddAUyEyW4kxvSw8K-168" value="" style="shape=tableRow;horizontal=0;startSize=0;swimlaneHead=0;swimlaneBody=0;strokeColor=inherit;top=0;left=0;bottom=0;right=0;collapsible=0;dropTarget=0;fillColor=none;points=[[0,0.5],[1,0.5]];portConstraint=eastwest;fontSize=16;" vertex="1" parent="YQpDddAUyEyW4kxvSw8K-159">
          <mxGeometry y="80" width="260" height="40" as="geometry" />
        </mxCell>
        <mxCell id="YQpDddAUyEyW4kxvSw8K-169" value="Headers" style="shape=partialRectangle;html=1;whiteSpace=wrap;connectable=0;strokeColor=inherit;overflow=hidden;fillColor=none;top=0;left=0;bottom=0;right=0;pointerEvents=1;fontSize=16;" vertex="1" parent="YQpDddAUyEyW4kxvSw8K-168">
          <mxGeometry width="130" height="40" as="geometry">
            <mxRectangle width="130" height="40" as="alternateBounds" />
          </mxGeometry>
        </mxCell>
        <mxCell id="YQpDddAUyEyW4kxvSw8K-170" value="Object" style="shape=partialRectangle;html=1;whiteSpace=wrap;connectable=0;strokeColor=inherit;overflow=hidden;fillColor=none;top=0;left=0;bottom=0;right=0;pointerEvents=1;fontSize=16;" vertex="1" parent="YQpDddAUyEyW4kxvSw8K-168">
          <mxGeometry x="130" width="130" height="40" as="geometry">
            <mxRectangle width="130" height="40" as="alternateBounds" />
          </mxGeometry>
        </mxCell>
        <mxCell id="YQpDddAUyEyW4kxvSw8K-172" style="shape=tableRow;horizontal=0;startSize=0;swimlaneHead=0;swimlaneBody=0;strokeColor=inherit;top=0;left=0;bottom=0;right=0;collapsible=0;dropTarget=0;fillColor=none;points=[[0,0.5],[1,0.5]];portConstraint=eastwest;fontSize=16;" vertex="1" parent="YQpDddAUyEyW4kxvSw8K-159">
          <mxGeometry y="120" width="260" height="40" as="geometry" />
        </mxCell>
        <mxCell id="YQpDddAUyEyW4kxvSw8K-173" value="Request Status" style="shape=partialRectangle;html=1;whiteSpace=wrap;connectable=0;strokeColor=inherit;overflow=hidden;fillColor=none;top=0;left=0;bottom=0;right=0;pointerEvents=1;fontSize=16;" vertex="1" parent="YQpDddAUyEyW4kxvSw8K-172">
          <mxGeometry width="130" height="40" as="geometry">
            <mxRectangle width="130" height="40" as="alternateBounds" />
          </mxGeometry>
        </mxCell>
        <mxCell id="YQpDddAUyEyW4kxvSw8K-174" value="string" style="shape=partialRectangle;html=1;whiteSpace=wrap;connectable=0;strokeColor=inherit;overflow=hidden;fillColor=none;top=0;left=0;bottom=0;right=0;pointerEvents=1;fontSize=16;" vertex="1" parent="YQpDddAUyEyW4kxvSw8K-172">
          <mxGeometry x="130" width="130" height="40" as="geometry">
            <mxRectangle width="130" height="40" as="alternateBounds" />
          </mxGeometry>
        </mxCell>
        <mxCell id="YQpDddAUyEyW4kxvSw8K-177" style="edgeStyle=orthogonalEdgeStyle;rounded=0;orthogonalLoop=1;jettySize=auto;html=1;" edge="1" parent="YQpDddAUyEyW4kxvSw8K-115" source="YQpDddAUyEyW4kxvSw8K-172">
          <mxGeometry relative="1" as="geometry">
            <mxPoint x="320" y="181" as="targetPoint" />
          </mxGeometry>
        </mxCell>
        <mxCell id="YQpDddAUyEyW4kxvSw8K-132" style="edgeStyle=orthogonalEdgeStyle;rounded=0;orthogonalLoop=1;jettySize=auto;html=1;exitX=1;exitY=0.5;exitDx=0;exitDy=0;" edge="1" parent="1" source="YQpDddAUyEyW4kxvSw8K-48" target="YQpDddAUyEyW4kxvSw8K-115">
          <mxGeometry relative="1" as="geometry" />
        </mxCell>
      </root>
    </mxGraphModel>
  </diagram>
  <diagram id="TLiSbwSE1mZ-EjRlca5y" name="Page-4">
    <mxGraphModel dx="954" dy="526" grid="1" gridSize="10" guides="1" tooltips="1" connect="1" arrows="1" fold="1" page="1" pageScale="1" pageWidth="827" pageHeight="1169" math="0" shadow="0">
      <root>
        <mxCell id="0" />
        <mxCell id="1" parent="0" />
      </root>
    </mxGraphModel>
  </diagram>
</mxfile>
